<svg xmlns="http://www.w3.org/2000/svg" viewBox="0 0 784 784" width="20" height="27">
    <g transform="matrix(0 -1 1 0 -0 784)">
        <g fill="#02C2E0" stroke="#02C2E0">
            <path d="M 452.333 221.377 C 448.575 222.014 447.033 222.764 446.677 224.127 C 446.408 225.157 445.358 226.010 444.344 226.022 C 443.330 226.034 441.375 226.924 440.000 228.000 C 438.625 229.076 436.825 229.955 436.000 229.955 C 435.175 229.955 436.069 229.182 437.986 228.238 C 440.337 227.081 440.937 226.419 439.829 226.206 C 438.926 226.032 437.893 226.364 437.534 226.945 C 437.175 227.525 436.009 228.000 434.941 228.000 C 433.873 228.000 433.000 228.450 433.000 229.000 C 433.000 229.550 432.277 230.000 431.393 230.000 C 430.391 230.000 429.998 230.553 430.349 231.468 C 430.659 232.275 430.413 233.245 429.802 233.622 C 429.129 234.038 428.972 233.854 429.405 233.155 C 429.797 232.520 429.666 232.000 429.114 232.000 C 428.561 232.000 427.522 233.204 426.805 234.676 C 426.087 236.148 424.825 237.526 424.000 237.739 C 423.006 237.995 423.150 237.602 424.427 236.573 C 425.487 235.719 426.113 234.780 425.819 234.486 C 425.525 234.192 423.907 235.361 422.222 237.084 C 420.333 239.016 418.686 239.924 417.925 239.454 C 417.135 238.966 416.946 239.104 417.399 239.837 C 417.789 240.467 416.695 243.037 414.967 245.547 C 413.061 248.318 411.713 251.644 411.536 254.012 C 411.376 256.157 410.922 257.594 410.526 257.206 C 410.130 256.818 409.916 257.625 410.051 259.000 C 410.187 260.375 409.947 262.315 409.519 263.310 C 408.309 266.121 409.511 278.153 411.357 281.724 C 412.364 283.672 413.551 284.726 414.379 284.408 C 415.129 284.120 416.035 284.650 416.394 285.584 C 416.941 287.010 416.801 287.080 415.523 286.019 C 414.284 284.991 414.000 285.013 414.000 286.140 C 414.000 286.902 415.199 288.420 416.665 289.513 C 418.131 290.606 419.818 291.950 420.415 292.500 C 421.012 293.050 422.553 293.950 423.840 294.500 C 426.386 295.588 426.323 295.512 420.500 290.433 L 417.500 287.817 420.666 289.916 C 422.407 291.071 425.229 292.296 426.937 292.637 C 428.644 292.979 430.284 293.650 430.580 294.129 C 430.876 294.608 444.816 295.000 461.559 295.000 C 482.160 295.000 492.000 295.340 492.000 296.050 C 492.000 296.768 504.579 297.068 531.750 296.997 C 553.613 296.940 570.878 296.918 570.118 296.947 C 569.357 296.976 571.746 299.019 575.425 301.486 C 583.073 306.615 585.000 308.347 585.000 310.095 C 585.000 310.776 585.273 311.060 585.607 310.726 C 585.941 310.392 588.134 312.004 590.481 314.309 C 592.827 316.614 597.285 320.894 600.388 323.821 C 603.491 326.747 605.729 329.630 605.361 330.225 C 604.992 330.821 605.132 331.037 605.670 330.704 C 606.209 330.371 612.466 335.924 619.575 343.045 C 626.684 350.166 632.900 355.994 633.390 355.996 C 634.521 356.001 636.926 359.134 636.968 360.656 C 636.987 361.325 636.156 361.592 635.000 361.290 C 633.824 360.982 633.000 361.259 633.000 361.962 C 633.000 363.408 617.248 379.500 615.833 379.500 C 615.283 379.500 615.087 379.754 615.397 380.064 C 616.130 380.797 601.505 395.000 600.017 395.000 C 599.393 395.000 599.121 395.386 599.413 395.859 C 600.047 396.885 585.723 411.000 584.048 411.000 C 583.406 411.000 583.119 411.383 583.408 411.851 C 583.697 412.319 580.701 415.807 576.749 419.601 L 569.565 426.500 499.032 427.000 C 424.548 427.528 426.361 427.412 420.624 432.000 C 412.940 438.145 409.563 443.738 410.446 448.855 C 410.835 451.112 410.735 451.997 410.184 451.179 C 409.624 450.347 409.294 452.504 409.294 457.000 C 409.294 461.223 409.636 463.602 410.132 462.821 C 410.776 461.805 410.973 461.885 410.985 463.168 C 410.993 464.086 411.267 465.661 411.594 466.668 C 412.099 468.225 412.013 468.275 411.020 467.000 C 410.095 465.813 409.984 466.307 410.492 469.364 C 411.182 473.521 411.552 474.114 417.250 480.171 C 422.012 485.234 422.147 484.158 417.440 478.659 C 412.645 473.057 414.508 473.327 419.527 478.961 C 421.712 481.415 424.738 484.744 426.250 486.359 C 427.763 487.975 429.004 489.792 429.008 490.398 C 429.012 491.004 430.227 492.063 431.707 492.750 C 435.915 494.704 436.898 494.134 433.000 492.000 C 431.075 490.946 430.078 490.065 430.785 490.042 C 432.761 489.977 437.000 493.066 437.000 494.570 C 437.000 495.307 438.463 496.165 440.250 496.478 C 442.038 496.791 482.650 496.917 530.500 496.758 L 617.500 496.470 621.702 494.235 C 624.013 493.006 626.423 492.000 627.059 492.000 C 627.694 492.000 627.960 491.339 627.651 490.532 C 627.341 489.725 627.587 488.755 628.198 488.378 C 628.871 487.962 629.028 488.146 628.595 488.845 C 627.044 491.355 631.232 489.837 634.377 486.750 C 636.198 484.963 638.968 482.498 640.533 481.272 C 644.753 477.969 642.758 477.342 638.316 480.576 C 634.726 483.190 634.779 483.078 639.214 478.677 C 643.683 474.242 646.700 472.246 643.980 475.524 C 643.284 476.362 643.029 477.362 643.412 477.745 C 644.390 478.723 646.084 475.786 645.484 474.153 C 645.206 473.398 647.740 470.051 651.244 466.542 C 654.685 463.097 665.103 452.556 674.396 443.118 C 683.689 433.681 691.426 426.092 691.589 426.255 C 691.752 426.418 687.789 430.706 682.784 435.784 C 677.778 440.861 673.976 445.309 674.335 445.668 C 674.694 446.027 675.830 445.349 676.861 444.160 C 677.891 442.972 679.319 442.000 680.034 442.000 C 680.749 442.000 681.062 441.728 680.730 441.396 C 680.398 441.064 688.198 432.733 698.063 422.882 C 707.928 413.032 716.000 404.390 716.000 403.678 C 716.000 402.966 710.938 407.360 704.750 413.442 L 693.500 424.500 703.857 413.525 C 714.533 402.211 718.389 397.199 721.344 390.792 C 722.307 388.703 723.589 387.289 724.279 387.553 C 725.379 387.976 726.435 385.788 728.647 378.500 C 728.981 377.400 729.273 369.750 729.297 361.500 C 729.340 346.796 729.354 346.697 730.034 356.500 C 730.712 366.280 730.721 366.214 730.471 353.500 C 730.248 342.231 729.860 339.568 727.557 333.500 C 726.096 329.650 724.783 326.050 724.639 325.500 C 723.757 322.123 722.759 320.000 722.054 320.000 C 721.608 320.000 720.686 318.656 720.005 317.013 C 719.325 315.370 718.419 314.241 717.993 314.504 C 717.567 314.767 716.484 313.862 715.586 312.491 C 714.688 311.121 713.476 310.000 712.892 310.000 C 712.308 310.000 713.599 312.009 715.760 314.465 C 720.255 319.571 726.835 332.054 727.377 336.500 C 727.577 338.150 727.531 338.825 727.272 338.000 C 726.744 336.311 724.854 331.748 723.132 328.000 C 721.547 324.550 717.928 318.606 717.044 318.000 C 716.643 317.725 714.718 315.393 712.767 312.817 C 710.815 310.241 701.710 300.566 692.532 291.317 C 683.354 282.068 675.767 274.050 675.672 273.500 C 675.522 272.625 689.739 286.759 706.521 304.167 C 709.526 307.284 712.196 309.492 712.455 309.072 C 712.714 308.653 711.030 306.490 708.713 304.264 C 706.396 302.039 695.534 291.170 684.576 280.109 C 666.748 262.116 660.187 256.269 664.156 261.911 C 665.805 264.256 657.639 257.190 646.450 246.590 C 641.858 242.239 637.528 238.326 636.829 237.894 C 636.130 237.462 635.812 236.855 636.123 236.544 C 636.433 236.233 640.915 240.002 646.081 244.919 C 651.247 249.836 655.669 253.664 655.907 253.427 C 656.144 253.189 651.968 248.743 646.625 243.546 C 640.269 237.363 636.394 234.295 635.415 234.671 C 634.592 234.987 634.008 234.853 634.118 234.373 C 634.433 232.994 632.881 230.000 631.851 230.000 C 631.337 230.000 629.950 229.100 628.770 228.000 C 626.496 225.882 625.000 225.432 625.000 226.867 C 625.000 227.344 626.841 228.953 629.092 230.442 C 631.342 231.931 632.893 233.441 632.537 233.796 C 632.182 234.151 631.578 234.003 631.196 233.465 C 630.813 232.928 628.804 231.224 626.731 229.679 C 624.658 228.134 623.201 226.484 623.492 226.013 C 624.164 224.926 618.374 221.995 615.596 222.015 C 613.835 222.028 613.740 222.203 615.000 223.110 C 616.248 224.007 616.192 224.089 614.668 223.594 C 613.661 223.267 612.662 223.000 612.450 223.000 C 612.237 223.000 612.324 222.318 612.644 221.485 C 613.161 220.137 604.588 219.999 535.363 220.235 C 492.538 220.381 455.175 220.895 452.333 221.377 "/>
        </g>
        <g fill="#027ACE" stroke="#027ACE">
            <path d="M 130.281 442.217 C 128.807 442.611 127.412 442.745 127.181 442.515 C 126.951 442.284 126.079 442.778 125.245 443.612 C 124.355 444.502 122.382 445.014 120.476 444.850 C 118.687 444.695 116.611 445.073 115.862 445.688 C 115.113 446.303 113.150 446.945 111.500 447.115 C 109.850 447.285 107.957 447.818 107.294 448.298 C 106.630 448.779 105.618 448.882 105.044 448.527 C 104.470 448.172 104.000 448.359 104.000 448.941 C 104.000 449.523 103.100 450.000 102.000 450.000 C 100.900 450.000 100.000 450.477 100.000 451.059 C 100.000 451.641 99.577 451.856 99.060 451.537 C 98.542 451.217 97.192 451.950 96.060 453.166 C 94.927 454.382 94.000 454.998 94.000 454.534 C 94.000 454.070 93.100 454.505 92.000 455.500 C 90.900 456.495 89.947 457.128 89.882 456.905 C 89.816 456.682 89.791 456.760 89.824 457.077 C 89.909 457.884 71.069 476.557 70.480 476.250 C 70.216 476.113 70.295 476.000 70.655 476.000 C 71.015 476.000 70.495 476.900 69.500 478.000 C 68.505 479.100 68.040 480.000 68.467 480.000 C 68.895 480.000 68.689 480.670 68.009 481.489 C 67.329 482.308 66.305 482.688 65.732 482.334 C 65.128 481.961 64.990 482.175 65.405 482.845 C 65.797 483.480 65.593 484.000 64.952 484.000 C 64.311 484.000 64.045 484.675 64.362 485.500 C 64.678 486.325 64.515 487.000 64.000 487.000 C 63.485 487.000 63.322 487.675 63.638 488.500 C 63.955 489.325 63.716 490.000 63.107 490.000 C 62.498 490.000 62.000 490.825 62.000 491.833 C 62.000 492.842 61.732 493.934 61.405 494.261 C 60.604 495.063 60.332 520.000 61.125 520.000 C 61.469 520.000 62.034 521.422 62.382 523.160 C 62.730 524.898 63.348 525.985 63.757 525.576 C 64.475 524.858 64.606 525.209 64.875 528.559 C 64.944 529.416 65.445 529.843 65.989 529.507 C 66.554 529.157 66.724 529.556 66.385 530.440 C 66.056 531.297 66.412 532.221 67.185 532.518 C 67.952 532.812 68.648 533.976 68.733 535.106 C 68.921 537.602 70.788 540.016 72.300 539.718 C 72.910 539.598 73.486 540.063 73.580 540.750 C 73.673 541.438 73.806 541.720 73.875 541.378 C 73.944 541.035 74.661 541.303 75.468 541.973 C 76.275 542.644 76.838 543.711 76.718 544.346 C 76.597 544.988 77.429 545.373 78.597 545.213 C 79.750 545.055 81.276 545.628 81.988 546.486 C 83.097 547.822 83.011 547.957 81.391 547.429 C 79.834 546.920 79.765 547.002 81.000 547.890 C 81.825 548.484 83.764 548.976 85.309 548.985 C 86.854 548.993 87.876 549.392 87.579 549.872 C 87.283 550.351 89.169 551.503 91.770 552.431 C 94.372 553.360 97.252 554.524 98.171 555.019 C 99.108 555.523 128.303 555.945 164.654 555.978 C 220.593 556.030 229.670 556.242 230.952 557.524 C 232.266 558.837 231.665 559.788 225.749 565.754 C 216.731 574.850 213.000 582.230 213.000 590.972 C 213.000 595.603 213.598 598.750 215.000 601.500 C 216.100 603.658 217.000 606.003 217.000 606.711 C 217.000 607.420 217.450 608.000 218.000 608.000 C 218.550 608.000 219.000 608.649 219.000 609.443 C 219.000 610.237 221.516 613.604 224.591 616.925 C 230.104 622.880 239.927 629.000 243.971 629.000 C 245.022 629.000 246.160 629.450 246.500 630.000 C 246.840 630.550 248.126 631.000 249.359 631.000 C 250.592 631.000 252.027 631.392 252.550 631.872 C 253.072 632.351 256.497 633.005 260.161 633.326 C 265.453 633.788 266.936 633.609 267.379 632.454 C 267.686 631.654 269.216 631.000 270.781 631.000 C 275.256 631.000 288.084 624.667 296.383 618.360 C 302.299 613.864 327.000 589.665 327.000 588.365 C 327.000 587.880 336.945 577.587 349.100 565.491 C 361.255 553.396 372.955 541.322 375.100 538.660 L 379.000 533.820 379.000 516.851 C 379.000 505.793 379.348 500.097 380.000 500.500 C 380.550 500.840 381.000 500.641 381.000 500.059 C 381.000 499.477 380.646 499.000 380.214 499.000 C 379.782 499.000 379.366 498.213 379.289 497.250 C 378.972 493.295 378.435 491.431 377.250 490.179 C 376.563 489.452 375.931 488.102 375.848 487.179 C 375.654 485.044 375.265 483.353 375.115 483.992 C 375.052 484.263 373.812 482.238 372.360 479.492 C 370.909 476.746 369.334 474.350 368.860 474.167 C 368.387 473.983 367.994 473.308 367.987 472.667 C 367.974 471.390 362.959 465.066 359.000 461.333 C 353.368 456.022 348.565 452.000 347.855 452.000 C 347.440 452.000 345.001 450.583 342.436 448.852 C 339.639 446.964 336.135 445.556 333.685 445.336 C 331.438 445.133 328.675 444.362 327.545 443.621 C 326.341 442.832 324.042 442.478 321.995 442.765 C 320.073 443.035 318.767 442.968 319.094 442.617 C 319.920 441.729 133.583 441.334 130.281 442.217 "/>
        </g>
        <g fill="#027ACE" stroke="#027ACE">
            <path d="M 238.000 115.136 C 228.785 119.988 220.254 128.216 216.110 136.250 C 209.700 148.680 212.641 160.932 225.058 173.527 C 228.326 176.842 231.000 179.956 231.000 180.448 C 231.000 180.940 231.686 182.100 232.524 183.027 C 233.362 183.953 233.775 185.423 233.441 186.294 C 232.896 187.714 225.965 187.893 166.167 188.033 C 92.522 188.206 93.475 188.190 92.416 189.250 C 92.004 189.663 90.654 190.000 89.417 190.000 C 88.179 190.000 87.008 190.475 86.815 191.054 C 86.622 191.634 85.572 192.240 84.482 192.400 C 83.392 192.560 82.671 193.091 82.880 193.580 C 83.290 194.538 77.905 197.960 76.884 197.391 C 76.545 197.202 75.420 198.049 74.384 199.274 L 72.500 201.500 75.000 199.521 C 76.489 198.343 76.084 199.073 74.000 201.327 C 72.075 203.408 70.462 204.524 70.416 203.806 C 70.329 202.444 68.000 207.465 68.000 209.015 C 68.000 209.502 67.391 210.260 66.646 210.700 C 64.851 211.760 62.766 215.813 63.448 216.916 C 63.745 217.397 63.269 218.066 62.391 218.404 C 61.479 218.753 61.039 219.658 61.365 220.508 C 61.680 221.329 61.614 222.000 61.219 222.000 C 60.357 221.999 60.527 243.860 61.395 244.729 C 61.728 245.061 62.000 246.275 62.000 247.426 C 62.000 248.577 62.843 250.046 63.874 250.689 C 64.905 251.333 66.065 253.129 66.452 254.680 C 66.839 256.231 67.866 258.288 68.733 259.250 C 69.600 260.213 69.931 261.000 69.468 261.000 C 69.005 261.000 69.879 262.308 71.410 263.907 C 72.942 265.505 74.151 267.080 74.098 267.407 C 74.044 267.733 74.056 268.225 74.125 268.500 C 74.194 268.775 74.306 268.535 74.375 267.968 C 74.444 267.400 75.251 267.812 76.168 268.883 C 77.085 269.954 77.573 271.094 77.251 271.415 C 76.930 271.737 77.492 272.000 78.500 272.000 C 79.508 272.000 80.055 272.279 79.714 272.619 C 79.374 272.960 79.695 273.838 80.429 274.571 C 81.162 275.305 82.040 275.626 82.381 275.286 C 82.721 274.945 83.000 275.340 83.000 276.163 C 83.000 277.068 83.882 277.627 85.233 277.579 C 86.461 277.536 87.474 278.063 87.483 278.750 C 87.492 279.438 87.950 280.113 88.500 280.250 C 89.050 280.388 89.393 280.821 89.262 281.214 C 89.131 281.607 89.634 281.694 90.381 281.407 C 91.184 281.099 92.062 281.828 92.535 283.193 C 93.100 284.829 93.258 284.933 93.077 283.554 C 92.859 281.888 93.049 281.796 94.400 282.917 C 95.268 283.637 95.746 284.602 95.462 285.061 C 95.179 285.520 95.830 285.725 96.909 285.518 C 97.988 285.310 99.405 285.783 100.058 286.570 C 100.711 287.356 101.865 288.000 102.622 288.000 C 103.380 288.000 104.000 288.477 104.000 289.059 C 104.000 289.641 104.384 289.881 104.853 289.591 C 105.322 289.301 106.559 289.710 107.603 290.500 C 108.646 291.290 110.475 291.951 111.667 291.968 C 112.858 291.986 113.983 292.422 114.167 292.939 C 114.350 293.455 115.625 294.061 117.000 294.285 C 118.375 294.509 120.175 294.990 121.000 295.353 C 122.921 296.198 325.248 295.313 330.250 294.438 C 332.313 294.077 334.000 293.380 334.000 292.891 C 334.000 292.401 334.983 292.000 336.186 292.000 C 337.388 292.000 339.389 291.044 340.633 289.875 C 341.877 288.706 344.035 287.750 345.429 287.750 C 346.937 287.750 347.702 287.327 347.318 286.705 C 346.915 286.054 347.318 285.908 348.388 286.319 C 349.332 286.681 349.859 286.581 349.561 286.098 C 349.262 285.614 350.251 284.444 351.759 283.497 C 355.583 281.094 366.469 269.401 368.647 265.357 C 369.641 263.511 370.802 262.000 371.227 262.000 C 371.652 262.000 372.000 261.319 372.000 260.486 C 372.000 258.977 373.940 254.948 375.124 254.000 C 375.690 253.547 376.278 251.371 377.824 244.000 C 378.113 242.625 378.516 233.676 378.720 224.114 L 379.091 206.728 339.125 166.864 C 317.143 144.939 298.742 127.000 298.232 127.000 C 297.723 127.000 296.225 126.047 294.903 124.882 C 290.134 120.679 280.660 115.000 278.416 115.000 C 277.671 115.000 275.458 114.100 273.500 113.000 C 270.447 111.285 268.196 111.013 257.720 111.094 L 245.500 111.188 238.000 115.136 "/>
        </g>
        <g fill="#F4BC08" stroke="#F4BC08">
            <path d="M 361.000 329.680 C 359.075 329.869 323.075 330.180 281.000 330.371 C 238.925 330.563 202.735 330.995 200.579 331.331 C 198.422 331.667 196.195 332.405 195.629 332.971 C 194.309 334.291 192.688 334.313 193.500 333.000 C 193.840 332.450 193.641 332.000 193.059 332.000 C 192.477 332.000 192.000 332.900 192.000 334.000 C 192.000 335.100 191.523 336.000 190.941 336.000 C 190.359 336.000 190.160 335.550 190.500 335.000 C 190.840 334.450 190.641 334.000 190.059 334.000 C 189.477 334.000 189.000 334.672 189.000 335.494 C 189.000 337.357 180.140 346.473 179.221 345.555 C 178.852 345.185 180.499 343.083 182.882 340.882 C 185.265 338.682 186.960 336.627 186.649 336.316 C 185.628 335.294 177.865 344.206 178.450 345.729 C 178.756 346.528 178.369 348.604 177.590 350.341 C 176.810 352.079 175.709 355.075 175.143 357.000 C 173.975 360.971 173.197 375.302 174.275 373.000 C 174.661 372.175 174.721 372.963 174.409 374.750 C 174.097 376.538 174.237 378.000 174.721 378.000 C 175.572 378.000 180.033 386.311 179.968 387.777 C 179.951 388.175 179.276 387.626 178.468 386.559 C 177.188 384.866 177.000 384.834 177.000 386.309 C 177.000 387.793 178.174 388.493 179.419 387.750 C 180.395 387.168 185.016 392.517 184.561 393.702 C 183.897 395.431 184.941 398.000 186.307 398.000 C 187.038 398.000 187.003 397.603 186.200 396.800 C 185.540 396.140 185.000 395.252 185.000 394.826 C 185.000 393.863 195.375 399.879 195.833 401.107 C 196.017 401.598 196.804 402.000 197.583 402.000 C 198.363 402.000 199.000 402.450 199.000 403.000 C 199.000 403.550 199.477 404.000 200.059 404.000 C 200.641 404.000 200.793 403.474 200.395 402.830 C 199.914 402.053 200.209 401.866 201.273 402.275 C 207.174 404.539 217.724 404.771 306.000 404.575 C 417.059 404.329 485.423 403.311 492.500 401.798 C 503.283 399.493 513.436 391.300 518.262 381.008 C 520.897 375.387 521.292 373.455 521.204 366.619 C 521.066 356.024 518.821 350.123 512.375 343.415 C 506.995 337.815 497.683 332.000 494.095 332.000 C 492.899 332.000 492.000 331.356 492.000 330.500 C 492.000 329.181 484.325 329.020 428.250 329.168 C 393.188 329.261 362.925 329.491 361.000 329.680 "/>
        </g>
    </g>
</svg>